<svg
   xmlns="http://www.w3.org/2000/svg" >
    <g>
        <path
            d="M 59,1 45.908203,18.457031 22.130859,15.060547 15.060547,22.130859 18.457031,45.908203 1,59 v 10 l 17.457031,13.091797 -3.396484,23.777343 7.070312,7.07031 23.09961,-3.29883 L 59,128 h 10 l 13.769531,-18.35938 23.099609,3.29883 7.07031,-7.07031 L 109.64062,82.769531 128,69 V 59 L 109.64062,45.230469 112.93945,22.130859 105.86914,15.060547 82.091797,18.457031 69,1 Z M 44.474609,21 H 83.525391 L 108,45.474609 V 82.525391 L 82.525391,108 H 45.474609 L 21,83.525391 V 44.474609 Z"
            style="fill:#708090;stroke:#2f4f4f;stroke-width:2;stroke-linecap:butt;stroke-linejoin:miter;stroke-miterlimit:4;stroke-dasharray:none" />
        <circle
            cy="64"
            cx="64"
            style="fill:#708090;stroke:#2f4f4f;stroke-width:2;stroke-linejoin:round;stroke-miterlimit:4"
            r="50"/>
        <path
            style="fill:#ffd700;stroke:#daa520;stroke-width:1px;stroke-linecap:butt;stroke-linejoin:miter"
            d="m 53.282996,30 v 0 0 0 L 45,70 60,65 55,105 70,75 85,45 65,50 v 0 L 78.282996,25 Z" />
    </g>
</svg>